REM DIRINDEX 1\2\5,1\2\6,1\2\7,1\2\8,1\3\9,1\3\10,1\3\11,1\4\12,1\4\13,1\4\14,1\4\15,1\4\16
REM DIRNAME cjc034,folder01,folder02,folder03,folder04,folder05,folder06,folder07,folder08,folder09,folder10,folder11,folder12,folder13,folder14,folder15
TITLE ""
FILE "1200_2_sec02_0492_0508.mp3" MP3
  TRACK 01 AUDIO
    TITLE "0:"
    INDEX 01 00:00:00
  TRACK 02 AUDIO
    TITLE "10:cjc034_01006"
    INDEX 01 00:00:15
  TRACK 03 AUDIO
    TITLE "0:"
    INDEX 01 00:02:59
  TRACK 04 AUDIO
    TITLE "9:cjc034_01007"
    INDEX 01 00:02:63
  TRACK 05 AUDIO
    TITLE "0:"
    INDEX 01 00:03:74
  TRACK 06 AUDIO
    TITLE "10:cjc034_01008"
    INDEX 01 00:04:54
  TRACK 07 AUDIO
    TITLE "0:"
    INDEX 01 00:05:40
  TRACK 08 AUDIO
    TITLE "9:cjc034_01009"
    INDEX 01 00:05:44
  TRACK 09 AUDIO
    TITLE "0:"
    INDEX 01 00:06:35
  TRACK 10 AUDIO
    TITLE "10:cjc034_01010"
    INDEX 01 00:07:17
  TRACK 11 AUDIO
    TITLE "0:"
    INDEX 01 00:08:46
  TRACK 12 AUDIO
    TITLE "9:cjc034_01011"
    INDEX 01 00:08:54
  TRACK 13 AUDIO
    TITLE "0:"
    INDEX 01 00:09:71
  TRACK 14 AUDIO
    TITLE "10:cjc034_01012"
    INDEX 01 00:10:57
  TRACK 15 AUDIO
    TITLE "0:"
    INDEX 01 00:11:68
  TRACK 16 AUDIO
    TITLE "9:cjc034_01013"
    INDEX 01 00:11:74
  TRACK 17 AUDIO
    TITLE "0:"
    INDEX 01 00:12:71
  TRACK 18 AUDIO
    TITLE "10:cjc034_01014"
    INDEX 01 00:13:55
  TRACK 19 AUDIO
    TITLE "0:"
    INDEX 01 00:14:68
  TRACK 20 AUDIO
    TITLE "9:cjc034_01015"
    INDEX 01 00:14:74
  TRACK 21 AUDIO
    TITLE "0:"
    INDEX 01 00:16:10
  TRACK 22 AUDIO
    TITLE "10:cjc034_01016"
    INDEX 01 00:16:69
  TRACK 23 AUDIO
    TITLE "0:"
    INDEX 01 00:18:03
  TRACK 24 AUDIO
    TITLE "9:cjc034_01017"
    INDEX 01 00:18:09
  TRACK 25 AUDIO
    TITLE "0:"
    INDEX 01 00:19:18
  TRACK 26 AUDIO
    TITLE "10:cjc034_01018"
    INDEX 01 00:20:00
  TRACK 27 AUDIO
    TITLE "0:"
    INDEX 01 00:21:23
  TRACK 28 AUDIO
    TITLE "9:cjc034_01019"
    INDEX 01 00:21:25
  TRACK 29 AUDIO
    TITLE "0:"
    INDEX 01 00:22:40
  TRACK 30 AUDIO
    TITLE "10:cjc034_01020"
    INDEX 01 00:23:22
  TRACK 31 AUDIO
    TITLE "0:"
    INDEX 01 00:24:65
  TRACK 32 AUDIO
    TITLE "9:cjc034_01021"
    INDEX 01 00:24:72
  TRACK 33 AUDIO
    TITLE "0:"
    INDEX 01 00:26:07
  TRACK 34 AUDIO
    TITLE "10:cjc034_01022"
    INDEX 01 00:26:67
  TRACK 35 AUDIO
    TITLE "0:"
    INDEX 01 00:28:02
  TRACK 36 AUDIO
    TITLE "9:cjc034_01023"
    INDEX 01 00:28:06
  TRACK 37 AUDIO
    TITLE "0:"
    INDEX 01 00:29:07
  TRACK 38 AUDIO
    TITLE "11:cjc034_01024"
    INDEX 01 00:30:59
  TRACK 39 AUDIO
    TITLE "0:"
    INDEX 01 00:32:31
  TRACK 40 AUDIO
    TITLE "10:cjc034_01025"
    INDEX 01 00:33:38
  TRACK 41 AUDIO
    TITLE "0:"
    INDEX 01 00:35:35
  TRACK 42 AUDIO
    TITLE "9:cjc034_01026"
    INDEX 01 00:35:39
  TRACK 43 AUDIO
    TITLE "0:"
    INDEX 01 00:36:44
  TRACK 44 AUDIO
    TITLE "10:cjc034_01027"
    INDEX 01 00:37:24
  TRACK 45 AUDIO
    TITLE "0:"
    INDEX 01 00:39:29
  TRACK 46 AUDIO
    TITLE "9:cjc034_01028"
    INDEX 01 00:39:33
  TRACK 47 AUDIO
    TITLE "0:"
    INDEX 01 00:40:30
  TRACK 48 AUDIO
    TITLE "10:cjc034_01029"
    INDEX 01 00:41:10
  TRACK 49 AUDIO
    TITLE "0:"
    INDEX 01 00:42:25
  TRACK 50 AUDIO
    TITLE "9:cjc034_01030"
    INDEX 01 00:42:29
  TRACK 51 AUDIO
    TITLE "0:"
    INDEX 01 00:43:39
  TRACK 52 AUDIO
    TITLE "10:cjc034_01031"
    INDEX 01 00:44:14
  TRACK 53 AUDIO
    TITLE "0:"
    INDEX 01 00:45:14
  TRACK 54 AUDIO
    TITLE "9:cjc034_01032"
    INDEX 01 00:45:20
  TRACK 55 AUDIO
    TITLE "0:"
    INDEX 01 00:46:13
  TRACK 56 AUDIO
    TITLE "10:cjc034_01033"
    INDEX 01 00:46:72
  TRACK 57 AUDIO
    TITLE "0:"
    INDEX 01 00:48:08
  TRACK 58 AUDIO
    TITLE "9:cjc034_01034"
    INDEX 01 00:48:10
  TRACK 59 AUDIO
    TITLE "0:"
    INDEX 01 00:49:27
  TRACK 60 AUDIO
    TITLE "10:cjc034_01035"
    INDEX 01 00:50:09
  TRACK 61 AUDIO
    TITLE "0:"
    INDEX 01 00:52:10
  TRACK 62 AUDIO
    TITLE "9:cjc034_01036"
    INDEX 01 00:52:14
  TRACK 63 AUDIO
    TITLE "0:"
    INDEX 01 00:53:25
  TRACK 64 AUDIO
    TITLE "10:cjc034_01037"
    INDEX 01 00:54:07
  TRACK 65 AUDIO
    TITLE "0:"
    INDEX 01 00:54:74
  TRACK 66 AUDIO
    TITLE "9:cjc034_01038"
    INDEX 01 00:55:03
  TRACK 67 AUDIO
    TITLE "0:"
    INDEX 01 00:56:08
  TRACK 68 AUDIO
    TITLE "10:cjc034_01039"
    INDEX 01 00:56:67
  TRACK 69 AUDIO
    TITLE "0:"
    INDEX 01 00:57:64
  TRACK 70 AUDIO
    TITLE "9:cjc034_01040"
    INDEX 01 00:57:70
  TRACK 71 AUDIO
    TITLE "0:"
    INDEX 01 00:59:04
